<svg width="36" height="28" viewBox="0 0 36 28" fill="none" xmlns="http://www.w3.org/2000/svg">
<path fill-rule="evenodd" clip-rule="evenodd" d="M25.7025 2.94649C25.8647 2.78772 26.1331 2.78772 26.2954 2.94649L32.3243 8.96087L33.8315 7.46038L26.6012 0.247486C26.2704 -0.0824954 25.7274 -0.0824954 25.3966 0.247486L18.1694 7.45727L19.6735 8.96087L25.7025 2.94649Z" fill="#2F318A"/>
<path fill-rule="evenodd" clip-rule="evenodd" d="M17.2645 11.361L15.7604 9.86056L9.7377 15.8687C9.57231 16.0306 9.30394 16.0306 9.13543 15.8687L1.15305 7.90869L0.248084 8.80836C-0.0826948 9.14145 -0.0826948 9.68001 0.248084 10.01L8.82962 18.5708C9.1604 18.9008 9.70337 18.9008 10.0342 18.5708L17.2645 11.361Z" fill="#00A2E8"/>
<path fill-rule="evenodd" clip-rule="evenodd" d="M35.1858 8.81147L34.284 7.90869L18.0196 24.1307C17.8542 24.2957 17.5827 24.2957 17.4174 24.1307L11.3947 18.1226L9.88745 19.6261L17.1178 26.8359C17.4486 27.169 17.9915 27.169 18.3223 26.8359L35.1858 10.0131C35.5166 9.68312 35.5166 9.14145 35.1858 8.81147Z" fill="#00A2E8"/>
<path fill-rule="evenodd" clip-rule="evenodd" d="M9.13538 2.95271C9.30077 2.78772 9.57225 2.78772 9.73764 2.95271L17.7169 10.9127L19.2241 9.41225L10.0372 0.247486C9.70644 -0.0824954 9.16346 -0.0824954 8.83268 0.247486L1.60547 7.45727L3.1127 8.95775L9.13538 2.95271Z" fill="#D04334"/>
<path fill-rule="evenodd" clip-rule="evenodd" d="M19.6767 9.8606L18.1726 11.3611L23.2934 16.4696C23.7085 16.8836 24.3856 16.8836 24.8007 16.4696C25.2157 16.0555 25.2157 15.3831 24.8007 14.9691L19.6767 9.8606Z" fill="#D04334"/>
<path fill-rule="evenodd" clip-rule="evenodd" d="M0.0203787 9.58669C0.0141376 9.50264 0.011017 9.4217 0.00789648 9.33765C0.00165536 9.4217 0.00477592 9.50575 0.0203787 9.58669Z" fill="url(#paint0_linear_7_409)"/>
<path fill-rule="evenodd" clip-rule="evenodd" d="M0.0203787 9.58669C0.0141376 9.50264 0.011017 9.4217 0.00789648 9.33765C0.00165536 9.4217 0.00477592 9.50575 0.0203787 9.58669Z" fill="url(#paint1_linear_7_409)"/>
<path fill-rule="evenodd" clip-rule="evenodd" d="M5.67475 14.9473H5.69035C6.43616 14.9473 7.14453 14.7978 7.79672 14.5332L1.15306 7.90869L0.251216 8.80836C0.10455 8.95778 0.0265358 9.14457 0.0078125 9.33757C0.0109331 9.42163 0.0140536 9.50256 0.0202947 9.58662C0.0515003 9.74227 0.126394 9.88858 0.248095 10.01L5.16922 14.9192C5.33773 14.9348 5.50312 14.9473 5.67475 14.9473Z" fill="url(#paint2_linear_7_409)"/>
<path fill-rule="evenodd" clip-rule="evenodd" d="M5.69028 3.42285H5.68716C5.67468 3.42285 5.66219 3.42596 5.64659 3.42596L1.60547 7.45734L3.10958 8.95782L8.10871 3.97386C7.37538 3.6252 6.55779 3.42285 5.69028 3.42285Z" fill="url(#paint3_linear_7_409)"/>
<path fill-rule="evenodd" clip-rule="evenodd" d="M29.8123 4.11694H29.7998C29.1071 4.11694 28.4424 4.2508 27.8276 4.47806L32.3212 8.96082L33.8285 7.46034L30.5332 4.16986C30.296 4.13873 30.0588 4.11694 29.8123 4.11694Z" fill="url(#paint4_linear_7_409)"/>
<path fill-rule="evenodd" clip-rule="evenodd" d="M35.426 9.3313C35.4291 9.36554 35.4291 9.39979 35.4291 9.43714C35.4323 9.4029 35.4291 9.36554 35.426 9.3313Z" fill="url(#paint5_linear_7_409)"/>
<path fill-rule="evenodd" clip-rule="evenodd" d="M35.4291 9.43719C35.4291 9.40295 35.426 9.36559 35.426 9.33135C35.4073 9.14145 35.3293 8.95467 35.1857 8.81147L34.2839 7.90869L27.3594 14.8196C28.0989 15.1776 28.9259 15.3831 29.8028 15.3831L29.8059 15.38L35.1889 10.0162C35.3449 9.85434 35.4229 9.64576 35.4291 9.43719Z" fill="url(#paint6_linear_7_409)"/>
<path fill-rule="evenodd" clip-rule="evenodd" d="M22.7441 5.89764L25.7024 2.94649C25.8646 2.78772 26.133 2.78772 26.2953 2.94649L29.2505 5.89764C29.834 5.48361 30.3364 4.96684 30.7265 4.36603L26.6011 0.247486C26.2703 -0.0824954 25.7273 -0.0824954 25.3966 0.247486L21.2681 4.36603C21.6581 4.96684 22.1605 5.48361 22.7441 5.89764Z" fill="url(#paint7_linear_7_409)"/>
<path fill-rule="evenodd" clip-rule="evenodd" d="M19.2243 9.41216L16.9962 7.18945C16.5469 7.76225 16.163 8.38797 15.8604 9.05727L17.7171 10.9095L19.2243 9.41216Z" fill="url(#paint8_linear_7_409)"/>
<path fill-rule="evenodd" clip-rule="evenodd" d="M19.6767 9.8606L18.1726 11.3611L23.2934 16.4696C23.7085 16.8836 24.3856 16.8836 24.8007 16.4696C25.2157 16.0555 25.2157 15.3831 24.8007 14.9691L19.6767 9.8606Z" fill="url(#paint9_linear_7_409)"/>
<path fill-rule="evenodd" clip-rule="evenodd" d="M19.6735 8.96079L21.7924 6.85015C21.3337 6.30537 20.8375 5.79795 20.3039 5.32788L18.1694 7.45719L19.6735 8.96079Z" fill="url(#paint10_linear_7_409)"/>
<path fill-rule="evenodd" clip-rule="evenodd" d="M18.0196 24.1307C17.8542 24.2957 17.5827 24.2957 17.4174 24.1307L11.3947 18.1226L9.88745 19.6262L17.1178 26.836C17.4486 27.169 17.9915 27.169 18.3223 26.836L24.2514 20.9212C24.7007 19.7102 24.9847 18.4214 25.0877 17.0859L18.0196 24.1307Z" fill="url(#paint11_linear_7_409)"/>
<path fill-rule="evenodd" clip-rule="evenodd" d="M10.8985 1.7605H10.8891H10.8673C9.41623 1.7605 8.0151 1.97841 6.6951 2.37999L1.60547 7.45735L3.1127 8.95783L9.13538 2.94968C9.30077 2.78469 9.57225 2.78469 9.73764 2.94968L17.7169 10.9097L19.2241 9.40922L11.5757 1.77918C11.351 1.76984 11.1232 1.76361 10.8985 1.7605Z" fill="url(#paint12_linear_7_409)"/>
<path fill-rule="evenodd" clip-rule="evenodd" d="M24.7944 16.4696C25.2095 16.0555 25.2095 15.3831 24.7944 14.9691L19.6767 9.8606L18.1726 11.3611L23.2934 16.4696C23.7054 16.8836 24.3825 16.8836 24.7944 16.4696Z" fill="url(#paint13_linear_7_409)"/>
<path fill-rule="evenodd" clip-rule="evenodd" d="M7.44414 4.63686L9.13548 2.95271C9.30087 2.78772 9.57236 2.78772 9.73775 2.95271L11.4291 4.63686C11.9908 4.11699 12.3434 3.3792 12.3559 2.55736L10.0373 0.247486C9.70654 -0.0824954 9.16357 -0.0824954 8.83279 0.247486L6.51733 2.55736C6.52982 3.3792 6.88244 4.11699 7.44414 4.63686Z" fill="url(#paint14_linear_7_409)"/>
<path fill-rule="evenodd" clip-rule="evenodd" d="M4.46094 14.1721V14.1753C4.46094 14.1877 4.46406 14.2002 4.46406 14.2157L8.83284 18.574C9.16362 18.904 9.7066 18.904 10.0374 18.574L16.9276 11.7004C16.6436 11.0186 16.2473 10.3992 15.7605 9.8606L9.7378 15.8687C9.57241 16.0306 9.30404 16.0306 9.13553 15.8687L4.95399 11.6973C4.63881 12.4631 4.46094 13.2974 4.46094 14.1721Z" fill="url(#paint15_linear_7_409)"/>
<path fill-rule="evenodd" clip-rule="evenodd" d="M13.4167 20.1429L11.3915 18.1226L9.88428 19.6262L10.8953 20.6348C10.9109 20.6348 10.9234 20.6379 10.939 20.6379C11.819 20.6348 12.6553 20.4604 13.4167 20.1429Z" fill="url(#paint16_linear_7_409)"/>
<defs>
<linearGradient id="paint0_linear_7_409" x1="0.00973761" y1="9.46155" x2="0.0224071" y2="9.46155" gradientUnits="userSpaceOnUse">
<stop stop-color="#F15F3D"/>
<stop offset="1" stop-color="#FFED2F"/>
</linearGradient>
<linearGradient id="paint1_linear_7_409" x1="0.00973761" y1="9.46155" x2="0.0224071" y2="9.46155" gradientUnits="userSpaceOnUse">
<stop stop-color="#F15F3D"/>
<stop offset="1" stop-color="#FFED2F"/>
</linearGradient>
<linearGradient id="paint2_linear_7_409" x1="1.86873" y1="15.3666" x2="5.62647" y2="8.84234" gradientUnits="userSpaceOnUse">
<stop stop-color="#00AEEF"/>
<stop offset="1" stop-color="#2E3192"/>
</linearGradient>
<linearGradient id="paint3_linear_7_409" x1="-6.85396" y1="6.1909" x2="11.6514" y2="6.1909" gradientUnits="userSpaceOnUse">
<stop stop-color="#F15F3D"/>
<stop offset="1" stop-color="#FFED2F"/>
</linearGradient>
<linearGradient id="paint4_linear_7_409" x1="27.8286" y1="6.53842" x2="33.832" y2="6.53842" gradientUnits="userSpaceOnUse">
<stop stop-color="#2E3192"/>
<stop offset="1" stop-color="#00AEEF"/>
</linearGradient>
<linearGradient id="paint5_linear_7_409" x1="35.4262" y1="9.38456" x2="35.4306" y2="9.38456" gradientUnits="userSpaceOnUse">
<stop stop-color="#F15F3D"/>
<stop offset="1" stop-color="#FFED2F"/>
</linearGradient>
<linearGradient id="paint6_linear_7_409" x1="27.3572" y1="11.6447" x2="35.4318" y2="11.6447" gradientUnits="userSpaceOnUse">
<stop stop-color="#2E3192"/>
<stop offset="1" stop-color="#00AEEF"/>
</linearGradient>
<linearGradient id="paint7_linear_7_409" x1="21.2692" y1="2.94848" x2="30.7302" y2="2.94848" gradientUnits="userSpaceOnUse">
<stop stop-color="#8ED8F8"/>
<stop offset="1" stop-color="#0095DA"/>
</linearGradient>
<linearGradient id="paint8_linear_7_409" x1="15.8589" y1="9.0508" x2="19.2243" y2="9.0508" gradientUnits="userSpaceOnUse">
<stop stop-color="white"/>
<stop offset="1"/>
</linearGradient>
<linearGradient id="paint9_linear_7_409" x1="18.17" y1="13.3211" x2="24.9024" y2="13.3211" gradientUnits="userSpaceOnUse">
<stop stop-color="white"/>
<stop offset="1"/>
</linearGradient>
<linearGradient id="paint10_linear_7_409" x1="20.6194" y1="6.04942" x2="19.358" y2="8.23959" gradientUnits="userSpaceOnUse">
<stop stop-color="#2E3192"/>
<stop offset="1" stop-color="#00AEEF"/>
</linearGradient>
<linearGradient id="paint11_linear_7_409" x1="9.88617" y1="22.0862" x2="25.0853" y2="22.0862" gradientUnits="userSpaceOnUse">
<stop stop-color="#2E3192"/>
<stop offset="1" stop-color="#00AEEF"/>
</linearGradient>
<linearGradient id="paint12_linear_7_409" x1="1.604" y1="6.33691" x2="19.2237" y2="6.33691" gradientUnits="userSpaceOnUse">
<stop stop-color="#2E3192"/>
<stop offset="1" stop-color="#00AEEF"/>
</linearGradient>
<linearGradient id="paint13_linear_7_409" x1="23.63" y1="16.8402" x2="19.8378" y2="10.2559" gradientUnits="userSpaceOnUse">
<stop stop-color="#00AEEF"/>
<stop offset="1" stop-color="#2E3192"/>
</linearGradient>
<linearGradient id="paint14_linear_7_409" x1="6.51783" y1="2.31756" x2="12.3526" y2="2.31756" gradientUnits="userSpaceOnUse">
<stop stop-color="#8ED8F8"/>
<stop offset="1" stop-color="#0095DA"/>
</linearGradient>
<linearGradient id="paint15_linear_7_409" x1="4.46038" y1="14.3418" x2="16.929" y2="14.3418" gradientUnits="userSpaceOnUse">
<stop stop-color="#8ED8F8"/>
<stop offset="1" stop-color="#0095DA"/>
</linearGradient>
<linearGradient id="paint16_linear_7_409" x1="9.8854" y1="19.3796" x2="13.417" y2="19.3796" gradientUnits="userSpaceOnUse">
<stop stop-color="#8ED8F8"/>
<stop offset="1" stop-color="#00AEEF"/>
</linearGradient>
</defs>
</svg>
